# xmcd
#
# Track frame offsets:
#	150
#	12935
#	29300
#	44215
#	58360
#	67372
#	80585
#	94382
#	110180
#	122067
#	135124
#	147369
#	158419
#	171569
#	182636
#	193641
#	206550
#	216917
#	228949
#	241263
#	259259
#	274372
#	289312
#	303038
#
# Disc length: 4203 seconds
#
# Revision: 0
# Processed by: cddbd v1.4PL0 Copyright (c) Steve Scherf et al.
# Submitted via: dBpowerAMP V4.0
#
DISCID=77106918
DTITLE=Lupillo Rivera - 24 Exitos con banda sinaloense
DYEAR=1900
DGENRE=Norteño
TTITLE0=Despreciado
TTITLE1=Que te ha dado esa mujer
TTITLE2=El barzón
TTITLE3=Tragos amargos
TTITLE4=copa tras copa
TTITLE5=Tu recuerdo y yo
TTITLE6=Se les pelo el Moreño
TTITLE7=Mi gusto es
TTITLE8=Yo no fui
TTITLE9=El moreño
TTITLE10=El grande entre grandes
TTITLE11=Ayer baje de la sierra
TTITLE12=El avionazo
TTITLE13=Carne quemada
TTITLE14=Chaka de Culiacan
TTITLE15=Toros de la mafia
TTITLE16=Los dos imperios
TTITLE17=El cartel de tijuana
TTITLE18=20 mujeres
TTITLE19=Un narco y dos federales
TTITLE20=Señorita cantinera
TTITLE21=Vengo a verte
TTITLE22=Tu y las nuves
TTITLE23=El melon
EXTD=Lupillo Rivera con banda sinaloense\n
EXTT0=
EXTT1=
EXTT2=
EXTT3=
EXTT4=
EXTT5=
EXTT6=
EXTT7=
EXTT8=
EXTT9=
EXTT10=
EXTT11=
EXTT12=
EXTT13=
EXTT14=
EXTT15=
EXTT16=
EXTT17=
EXTT18=
EXTT19=
EXTT20=
EXTT21=
EXTT22=
EXTT23=
PLAYORDER=
